<?xml version="1.0" standalone="yes"?>
<svg xmlns="http://www.w3.org/2000/svg" width="512" height="150">
<path style="fill:none; stroke:none;" d="M0 0L0 150L512 150L512 0L146 0L0 0z"/>
<path style="fill:#848484; stroke:none;" d="M257 60L253 60L253 70L257 70L257 94L269 94L269 70L278 70L278 60L269 60L269.528 58.5L270.5 56.9722L272.083 55.3333L273.028 54.75L274.944 54.3333L275.944 54.4444L278 55L278 45L277 44L273.944 44L272 44L271 44L269 44.0833L267 44.4167L266 44.7222L264 45.5556L263.028 46.0833L262.083 46.7222L260.472 48.2222L259.861 49.0833L259.278 50.0278L258.444 52L258.167 53L257.639 55L257.389 56L257.083 57.9444L257.028 58.5L257 60M284.111 44.7222L282.639 46.1111L282.111 47.0278L281.722 48L281.444 49L281.306 50L281.528 52L282.5 53.9167L284.083 55.5L286 56.5L287 56.75L288 56.8889L289 56.8611L291 56.2778L292.889 54.8889L293.667 53.9722L294.278 53L294.889 51L294.889 49L294.667 48L294.278 47.0278L292.889 45.3333L291.972 44.7222L291 44.3333L290 44.1111L288 44L287 44.0278L285.028 44.3333L284.111 44.7222z"/>
<path style="fill:#878787; stroke:none;" d="M110 45L110 94L110.722 93.2222L110.75 92.6944L110.944 91.8889L110.972 90.9722L111 89L111 87L111 82L111 56L111 52L111 50L110.972 48.0278L110.944 47.1111L110.75 46.3056L110.722 45.7778L110 45z"/>
<path style="fill:#ababab; stroke:none;" d="M111 45L111 94L122 94L122 83L122 81L122 80L122.083 78L122.472 76L122.861 75L123.278 74.0278L124.472 72.25L126.028 70.9444L127.5 70.2778L129 70L129.5 71.5L129.806 72.0556L130.528 74L130.75 75L130.917 76L131 78L131 79L131 80L131 82L131 94L143 94L143 76L143 73L143 72L142.972 70L142.917 69L142.778 68L142.278 66L141.361 64L140.694 63.0278L139.889 62.1111L138 60.7222L137 60.3056L136 60.0278L134 59.6111L132 59.2222L131 59.0833L129 59.0833L128 59.25L127 59.5L125.056 60.4444L124.056 61.1944L123.5 61.5833L122 63L122 45L111 45z"/>
<path style="fill:#878787; stroke:none;" d="M122 45L122 63L122.722 62.2222L122.75 61.6944L122.944 60.8889L122.972 59.9722L123 58L123 57L123 55L123 52L123 51L123 49L122.972 48.0278L122.944 47.1111L122.75 46.3056L122.722 45.7778L122 45z"/>
<path style="fill:#ababab; stroke:none;" d="M238 45L237.722 46.5L237.139 48.0556L236.75 49L236.25 50L235.389 52L234.611 54L233.806 56L233.389 57L232.611 59L232.194 60L231.389 62L230.611 64L229.75 66L229.25 67L228.389 69L227.611 71L227.194 72L226.472 73.9444L226.278 74.5L226 76L241 76L241.444 74.5L241.667 73.9444L242.389 72L243.25 70L243.75 69L244.611 67L245.389 65L246.194 63L246.611 62L247.389 60L248.25 58L248.75 57L249.611 55L250.389 53L251.194 51L251.611 50L252.306 48.0556L252.75 46.5L253 45L238 45z"/>
<path style="fill:#7e7e7e; stroke:none;" d="M252 47L253 48L252 47z"/>
<path style="fill:#ababab; stroke:none;" d="M94 92L95.0833 93.1389L96.2778 93.7222L97.0833 93.8889L98.0278 93.9722L99 94L101 94L102.944 94L106 94L106 60L101 60L99 60L97.1111 60.1111L96.3333 60.2778L95.3611 60.8611L95 62L93.5 61L92.9444 60.7778L91.9444 60.2222L90 59.4722L89 59.25L88 59.0833L86 59L84 59.0833L82 59.4167L80 60.0278L78 60.9167L77 61.5L75.0833 63.0833L73.4167 65L72.7222 66L72.0833 67L71.0833 69L70.7222 70L70.4167 71L70.0833 73L70 75L70 76L70 78L70.0278 80L70.0833 81L70.4167 83L70.6944 84L71.4167 86L72.5 88L74.0833 89.9722L75.0278 90.9167L77 92.5278L78 93.1389L80 94.1389L81 94.5278L82 94.75L83 94.9167L85 95L86 95L88 94.9167L90 94.5278L91.8889 93.7778L92.6944 93.2222L93.2222 93L94 92z"/>
<path style="fill:#8c8c8c; stroke:none;" d="M133.667 59.3333L134 59.6667L134.333 59.6667L134.333 59.3333L133.667 59.3333z"/>
<path style="fill:#ababab; stroke:none;" d="M159 59.4167L157 60.0278L156 60.4167L154 61.4167L152.083 62.6944L150.389 64.2222L149.639 65.0833L148.222 67L147.611 68L147.111 69L146.417 71L146.083 73L146 75L146 76L146 78L146 79L146.083 81L146.417 83L147.083 85L147.556 86L148.722 88L149.417 88.9722L151.083 90.75L152.028 91.5278L154 92.7222L156 93.6111L158 94.3056L159 94.5833L160 94.7778L162 94.9722L164 95L165 95L167 94.9167L169 94.5833L171 93.9722L172 93.5833L174 92.5L176 90.9167L176.972 89.9722L178.75 88L179.528 87L180.722 85L181.139 84L181.528 83L181.75 82L181.917 81L182 79L182 77L182 75L181.972 74L181.917 73L181.528 71L181.139 70L180.722 69L180.139 68L179.528 67L177.917 65L176.972 64.0278L176 63.0833L174 61.5L172 60.5L171 60.25L169 60L167 59.7778L165 59.3889L164 59.2222L163 59.0833L161 59.0833L159 59.4167z"/>
<path style="fill:#999999; stroke:none;" d="M165 59L165.778 59.7222L166.25 59.75L167.056 59.9444L169 60L168.222 59.2778L167.75 59.25L166.944 59.0556L165 59M197 59L197.778 59.7222L198.25 59.75L199.056 59.9444L201 60L200.222 59.2778L199.75 59.25L198.944 59.0556L197 59z"/>
<path style="fill:#ababab; stroke:none;" d="M201 59.3889L200 59.6111L198 59.9167L196 60.0833L195 60.25L194 60.5L192 61.5L190 63.0833L189.028 64.0278L187.25 66L186.5 67L185.417 69L184.694 71L184.417 72L184.083 74L184 76L184.028 78L184.083 79L184.389 81L184.639 82L185.167 84L185.472 85L186.472 87L187.861 88.9167L188.639 89.7778L189.389 90.5833L191.083 91.9722L193 93.1111L194 93.5833L195 93.9722L197 94.5833L199 94.9167L200 94.9722L201 95L203 94.9167L204 94.7778L206 94.3889L207 94.1944L208 94L210 93.5278L212 92.7222L213.972 91.5278L215.778 89.9167L217.306 88L217.972 87L219.083 85L219.5 84L219.917 82L219.972 81L220 80L220 78L220 77L220 75L220 74L219.917 72L219.5 70L219.083 69L217.972 67L216.583 65.0833L215.778 64.2222L214.917 63.4167L213 62.0278L212 61.4167L210 60.4167L208 59.6944L207 59.4167L205 59.0833L204 59.0556L203 59.0833L201 59.3889z"/>
<path style="fill:#7e7e7e; stroke:none;" d="M247 59L248 60L247 59z"/>
<path style="fill:#848484; stroke:none;" d="M312 63L311.667 61.2778L311.278 60.6667L310.667 60.3333L309.889 60.1111L308.972 60.0278L307 60L305 60L300 60L300 94L312 94L312 82L312 79L312 78L312.111 76L312.333 75L312.722 74L313.333 73.0278L314.111 72.1389L315.028 71.4444L317 71.0556L318.889 72.1389L320.278 74L320.889 76L321 78L321 79L321 82L321 94L333 94L333 77L333 74L333 73L332.972 71L332.917 70L332.583 68L332.306 67L331.583 65L331.083 64.0278L330.5 63.0833L328.917 61.5L327 60.4167L325 59.6944L323 59.2222L321 59.1111L320 59.2222L318 59.6944L316 60.4167L315.056 60.8611L313.5 61.7778L312 63M363 92L363.361 93.1389L364.333 93.7222L365.111 93.8889L367 94L369 94L374 94L374 60L370 60L368 60L366.028 60.0278L365.111 60.1111L364.333 60.3333L363.722 60.6667L363.333 61.2778L363 63L361.5 62.3056L360.944 61.9444L359 60.9167L358 60.4722L357 60.1667L355 59.6389L354 59.4167L353 59.3056L351 59.4167L350 59.6389L348 60.1667L346 60.8611L345 61.2778L343.028 62.4722L342.083 63.25L340.472 65.0278L339.861 66L338.778 68L338.25 69L337.472 71L337.083 73L337.028 74L337 75L337 77L337 79L337.083 81L337.417 83L338.028 85L338.417 86L339.417 87.9722L340.694 89.7778L341.417 90.5833L343.083 91.9722L345 93.1667L346 93.7222L348 94.5278L350 94.9167L351 94.9722L353 95L355 94.9167L357 94.5278L359 93.75L359.944 93.25L360.944 92.8333L361.5 92.5L363 92M392 63L391.667 61.2778L391.278 60.6667L390.667 60.3333L389.889 60.1111L388.972 60.0278L387 60L385 60L380 60L380 94L392 94L392 85L392 82L392 81L392 79L392.083 77L392.5 75L393.5 73.0833L395.028 71.5L395.972 70.9167L396.5 70.5278L398 70L398.75 71.5L399.194 72.0556L400.306 74L400.667 75L400.889 76L401 78L401 79L401 82L401 94L413 94L413 77L413 74L413 72L413 71L412.917 69L412.75 68L412.528 67L412.139 66L411.722 65L410.528 63.0833L408.917 61.5L407.972 60.9167L406 60.0278L405 59.6944L404 59.4167L402 59.1111L400 59.2222L399 59.4167L398 59.6944L396 60.4167L395.056 60.8611L393.5 61.7778L392 63M443 93L443 82L441.5 82.5L440.944 82.8056L439 83.5278L437 83.8333L436 83.7222L434 83.0556L432.083 81.75L431.25 80.9167L430.5 79.9722L429.972 79L429.583 78L429.5 77L429.972 75L430.5 74.0278L432.083 72.3056L433.028 71.6389L434 71.1111L436 70.5L438 70.5L439.944 71L440.944 71.3333L441.5 71.5556L443 72L443 61L442 60L440.5 59.9722L438.944 59.7778L437 59.3889L436 59.25L435 59.1667L433 59.3889L432 59.6111L430 60L429 60.2222L428 60.4722L426 61.2778L425 61.8611L424 62.4722L422.028 64.0833L421.083 65.0278L419.5 67L418.417 69L418.028 70L417.417 72L417.083 74L417 76L417 77L417 78L417.028 80L417.25 82L417.472 83L418.25 85L418.778 86L419.25 87L419.861 88L421.25 89.9167L423.028 91.5278L425 92.7222L426 93.1667L427 93.6111L429 94.3056L430 94.5833L432 94.9167L433 94.9722L435 95L436 95L438 94.9167L439.944 94.5556L441.5 93.9722L443 93M479 86L477.5 85.75L476.944 85.5833L475.944 85.3056L474 84.6111L472 83.8333L470 83.3611L469 83.3889L467 84.0833L466 84.5833L464 85.25L463 85.25L461.028 84.4722L459.278 82.9722L458.472 82.0278L457 80L481 80L481 77.9444L480.972 76.9444L480.917 76L480.611 74L480.139 72L479.833 71L479.139 69L478.722 68L478.139 67L477.528 66L475.917 64.0833L474 62.4722L473 61.8611L472 61.2778L470 60.4722L469 60.2222L467 59.8056L465 59.3889L464 59.25L463 59.1667L461 59.3889L460 59.6389L458 60.1667L457 60.4444L455 61.2778L453.028 62.3889L452.083 63.0278L450.417 64.4167L449.028 66.0833L447.833 68L447.278 69L446.472 71L446.083 73L446.028 74L446 75L446 77L446 79L446.028 81L446.083 82L446.472 84L446.861 85L447.833 87L449.028 88.9167L450.417 90.5833L451.222 91.3056L453.028 92.5833L455 93.5278L457 94.1389L458 94.3611L459 94.6111L461 94.9167L462 94.9722L464 95L465 95L467 94.9167L469 94.5833L471 93.9722L473 93.1667L474 92.7222L475.972 91.5278L476.889 90.75L478.278 89.0278L478.889 87.5L479 86z"/>
<path style="fill:#ababab; stroke:none;" d="M31 60L31.2778 61.5L31.4722 62.0556L32.1944 64L32.6111 65L33.3889 67L34.25 69L34.75 70L35.6111 72L36.3889 74L37.25 76L37.75 77L38.6111 79L39.3889 81L40.25 83L40.75 84L41.6111 86L42.3889 88L43.1944 90L43.6111 91L44.2222 93L44.3333 94L44.3056 95L43.7778 97L43.3889 98L42.6111 100L42.1944 101L41.4722 102.944L41.25 103.944L41.0833 104.5L41 106L54 106L54.4444 104.5L54.6667 103.944L55.3889 102L56.25 100L56.75 99L57.6111 97L58.3889 95L59.1944 93L59.6111 92L60.3889 90L60.8056 89L61.6111 87L62.3889 85L63.25 83L63.75 82L64.6111 80L65.3889 78L66.1944 76L66.6111 75L67.3889 73L67.8056 72L68.6111 70L69.3889 68L70.25 66L70.75 65L71.5278 63.0556L71.9167 61.5L72 60L59 60L58.5556 61.5L58.3333 62.0556L57.6111 64L56.8056 66L56.3889 67L55.6111 69L54.8056 71L54.3889 72L53.6111 74L53.1944 74.9444L52.8056 75.9444L52.5 76.5L52 78L51.0278 76.5L50.8333 75.9444L50.3611 74.9444L49.6111 73L48.8056 71L48.3889 70L47.6667 68L47.3333 67L46.6111 65L46.1944 64L45.4722 62.0556L45.2778 61.5L45 60L31 60z"/>
<path style="fill:#999999; stroke:none;" d="M106 60L106 94L106.722 93.2222L106.75 92.6944L106.944 91.8889L106.972 90.9722L107 89L107 88L107 86L107 69L107 66L107 65L106.972 63.0278L106.944 62.1111L106.75 61.3056L106.722 60.7778L106 60z"/>
<path style="fill:#848484; stroke:none;" d="M282 60L282 94L294 94L294 60L282 60z"/>
<path style="fill:#7e7e7e; stroke:none;" d="M177 64L178 65L177 64M149 65L150 66L149 65M69 67L70 68L69 67z"/>
<path style="fill:#000000; stroke:none;" d="M457 73L458.5 73.7222L459.056 73.75L460.056 73.9444L461 73.9722L463 74L465 73.9722L465.944 73.9444L466.944 73.75L467.5 73.7222L469 73L468.639 71.5278L467.667 70.25L465.972 69.1111L464 68.5L462 68.5833L460.028 69.5L459.111 70.1944L457.778 71.5278L457 73M86.0278 70.5L84.25 71.5L83.5 72.25L82.5 74.0278L82.25 75L82.0556 77L82.0833 78L82.5 79.9722L83.5 81.75L85.0833 83.0556L86.0278 83.5L88 83.8889L89 83.8611L90.9722 83.3611L92.75 82.2778L93.5 81.5833L94.5 79.9167L94.9167 78L94.9444 77L94.6667 75L94.2778 74.0278L92.8889 72.25L91.9722 71.5L90 70.5L88 70.1667L86.0278 70.5z"/>
<path style="fill:#878787; stroke:none;" d="M126 70L126.722 70.7222L127.25 70.75L129 71L128.278 70.2778L127.75 70.25L126 70z"/>
<path style="fill:#000000; stroke:none;" d="M163 70.5L161.028 71.1111L160.083 71.6389L158.5 73.1111L157.5 75L157.167 77L157.5 79L158.5 80.9167L160.083 82.5L162 83.4722L164 83.6944L166 83.2778L166.972 82.8889L167.889 82.3611L168.694 81.6944L169.361 80.8889L170.194 79L170.361 77L170.222 76L169.944 75.0278L169.083 73.25L168.5 72.4722L167.75 71.8611L166.917 71.2778L165 70.5556L163 70.5M201 70.5556L199.083 71.2778L198.25 71.8611L197.5 72.4722L196.5 74.0833L196.083 76L196.083 78L196.5 79.9167L196.944 80.75L197.5 81.5278L199.083 82.7222L201 83.5L202 83.6667L204 83.4722L205.917 82.5L207.5 80.9167L208.5 79L208.833 77L208.722 76L208.5 75L207.5 73.1111L206.75 72.3056L205.917 71.6389L204 70.75L202 70.4722L201 70.5556M354 70.5L353 70.9444L352.028 71.5L351.111 72.25L349.722 74.0278L349.333 75L349.056 77L349.083 78L349.5 79.9722L350.5 81.75L352.083 83.0556L353.028 83.5L355 83.9167L356 83.9444L358 83.6667L359.917 82.6667L360.75 81.8889L361.5 80.9722L362.5 79L362.833 77L362.5 75L361.5 73.0833L359.917 71.5L358 70.5L357 70.2778L356 70.1667L354 70.5z"/>
<path style="fill:#7e7e7e; stroke:none;" d="M124 71L125 72L124 71M242 71L243 72L242 71M67 72L68 73L67 72z"/>
<path style="fill:#878787; stroke:none;" d="M220 74L220 80L220.722 79.2222L220.75 78.6944L220.944 77.8889L220.944 76.1111L220.75 75.3056L220.722 74.7778L220 74z"/>
<path style="fill:#999999; stroke:none;" d="M122 75L122 94L122.722 93.2222L122.75 92.6944L122.944 91.8889L122.972 90.9722L123 90L123 88L123 87L123 84L123 82L123 81L123 79L122.972 78.0278L122.944 77.1111L122.75 76.3056L122.722 75.7778L122 75z"/>
<path style="fill:#878787; stroke:none;" d="M145 75L145 79L145.722 78.2222L145.889 77L145.722 76.2778L145.722 75.7778L145 75z"/>
<path style="fill:#8c8c8c; stroke:none;" d="M170.333 75.6667L170.333 76.3333L170.667 76.3333L170.667 76L170.333 75.6667z"/>
<path style="fill:#959595; stroke:none;" d="M195 75L195 79L195.722 78.2222L195.722 77.7222L195.889 77L195.722 75.7778L195 75z"/>
<path style="fill:#8c8c8c; stroke:none;" d="M81 76L81 79L81.6944 78.25L81.6944 77.1944L81.6944 76.75L81 76z"/>
<path style="fill:#7e7e7e; stroke:none;" d="M38 78L39 79L38 78z"/>
<path style="fill:#ababab; stroke:none;" d="M226 79.7222L224.111 81.1111L223.333 82.0278L222.722 83L222.333 84L222.111 85L222 87L222.028 88L222.333 90L222.722 90.9722L223.333 91.8889L224.111 92.6667L226 93.6667L227 93.8889L228 93.9722L230 94L232 93.8889L233 93.6667L233.972 93.2778L234.889 92.6667L236.278 90.9722L236.667 90L236.889 89L237 87L237 86L236.889 84L236.667 83L235.667 81.1111L234.889 80.3333L233 79.3333L232 79.1111L230 79L229 79.0278L227 79.3333L226 79.7222z"/>
<path style="fill:#7e7e7e; stroke:none;" d="M184.333 81.6667L184.333 82.3333L184.667 82.3333L184.667 82L184.333 81.6667M70 83L71 84L70 83M146 83L147 84L146 83M62 84L63 85L62 84z"/>
<path style="fill:#999999; stroke:none;" d="M237 84L237 90L237.722 89.2222L237.75 88.6944L237.944 87.8889L237.944 86.1111L237.75 85.3056L237.722 84.7778L237 84z"/>
<path style="fill:#7e7e7e; stroke:none;" d="M41 85L42 86L41 85M217 87L218 88L217 87M60 89L61 90L60 89M177 89L178 90L177 89M188 89L189 90L188 89M176 90L177 91L176 90M235 92L236 93L235 92M92 93L93 94L92 93z"/>
<path style="fill:#8f8f8f; stroke:none;" d="M205 94L205.722 94.7222L206.25 94.75L208 95L207.278 94.2778L206.75 94.25L205 94z"/>
<path style="fill:#999999; stroke:none;" d="M227 94L227.778 94.7222L228.306 94.75L229.111 94.9444L229.972 94.9722L230.944 95L233 95L232.222 94.2778L231.694 94.25L230.889 94.0556L230.028 94.0278L229.056 94L227 94z"/>
<path style="fill:#7e7e7e; stroke:none;" d="M55 101L56 102L55 101z"/>
<path style="fill:#999999; stroke:none;" d="M40 105L40.3611 106.139L41.3333 106.722L42.1111 106.889L43.0278 106.972L45 107L46 107L48 107L53 107L52.2222 106.278L51.6944 106.25L50.8889 106.056L49.9722 106.028L49 106L47 106L45 105.972L44 105.917L42.0556 105.583L40 105z"/>
</svg>
